<svg width="130" height="106" viewBox="0 0 130 106" fill="none" xmlns="http://www.w3.org/2000/svg">
<path d="M118.657 28.538L101.693 2.09713C101.302 1.48832 100.629 1.11963 99.9047 1.11963H87.3858H86.4158H42.5919H29.1029C28.3794 1.11963 27.7052 1.48779 27.3142 2.09713L10.3503 28.538H118.657Z" fill="#87D7BC"/>
<path d="M118.657 29.6005H10.3503C9.96193 29.6005 9.6044 29.3885 9.41793 29.0474C9.23146 28.7064 9.24634 28.2909 9.45565 27.9642L26.4201 1.52338C27.0087 0.605378 28.0117 0.0571289 29.1029 0.0571289H99.9047C100.995 0.0571289 101.998 0.604847 102.587 1.52285L119.552 27.9642C119.762 28.2909 119.776 28.7064 119.59 29.0474C119.403 29.3885 119.046 29.6005 118.657 29.6005ZM12.2941 27.4755H116.713L100.799 2.67088C100.603 2.36488 100.269 2.18213 99.9047 2.18213H29.1029C28.739 2.18213 28.4053 2.36488 28.2088 2.67088L12.2941 27.4755Z" fill="#33871E"/>
<path d="M115.954 46.5137H14.0457V96.6971H115.954V46.5137Z" fill="#87D7BC"/>
<path d="M115.954 46.5137H14.0457V81.6856H115.954V46.5137Z" fill="#DFFFF4"/>
<path d="M122.359 46.514H8.17432C7.00079 46.514 6.04932 45.5625 6.04932 44.389V30.6631C6.04932 29.4896 7.00079 28.5381 8.17432 28.5381H122.359C123.532 28.5381 124.484 29.4896 124.484 30.6631V44.389C124.484 45.5625 123.533 46.514 122.359 46.514Z" fill="#FCC24C"/>
<path d="M122.359 47.5765H8.17432C6.41641 47.5765 4.98682 46.1469 4.98682 44.389V30.6631C4.98682 28.9052 6.41641 27.4756 8.17432 27.4756H122.359C124.117 27.4756 125.547 28.9052 125.547 30.6631V44.389C125.547 46.1469 124.116 47.5765 122.359 47.5765ZM8.17432 29.6006C7.58835 29.6006 7.11182 30.0771 7.11182 30.6631V44.389C7.11182 44.975 7.58835 45.4515 8.17432 45.4515H122.359C122.945 45.4515 123.422 44.975 123.422 44.389V30.6631C123.422 30.0771 122.945 29.6006 122.359 29.6006H8.17432Z" fill="#33871E"/>
<path d="M125.043 104.111H4.95706C2.90962 104.111 1.25 102.451 1.25 100.404C1.25 98.3564 2.90962 96.6968 4.95706 96.6968H125.043C127.091 96.6968 128.751 98.3564 128.751 100.404C128.75 102.451 127.09 104.111 125.043 104.111Z" fill="#5CCEA8"/>
<path d="M115.954 82.7476H14.0457C13.4592 82.7476 12.9832 82.2716 12.9832 81.6851V46.5137C12.9832 45.9272 13.4592 45.4512 14.0457 45.4512H115.954C116.541 45.4512 117.017 45.9272 117.017 46.5137V81.6851C117.017 82.2721 116.541 82.7476 115.954 82.7476ZM15.1082 80.6226H114.892V47.5762H15.1082V80.6226Z" fill="#33871E"/>
<path d="M81.7923 46.5137H48.7406V96.6971H81.7923V46.5137Z" fill="#DFFFF4"/>
<path d="M55.8901 83.7253C57.3577 83.7253 58.5474 82.5356 58.5474 81.068C58.5474 79.6004 57.3577 78.4106 55.8901 78.4106C54.4225 78.4106 53.2328 79.6004 53.2328 81.068C53.2328 82.5356 54.4225 83.7253 55.8901 83.7253Z" fill="#2C9A75"/>
<path d="M81.7923 97.7591H48.7411C48.1546 97.7591 47.6786 97.2831 47.6786 96.6966V46.5137C47.6786 45.9272 48.1546 45.4512 48.7411 45.4512H81.7928C82.3793 45.4512 82.8553 45.9272 82.8553 46.5137V96.6966C82.8548 97.2836 82.3793 97.7591 81.7923 97.7591ZM49.8036 95.6341H80.7303V47.5762H49.8036V95.6341Z" fill="#33871E"/>
<path d="M115.954 97.7591H14.0457C13.4592 97.7591 12.9832 97.2831 12.9832 96.6966V46.5137C12.9832 45.9272 13.4592 45.4512 14.0457 45.4512H115.954C116.541 45.4512 117.017 45.9272 117.017 46.5137V96.6966C117.017 97.2836 116.541 97.7591 115.954 97.7591ZM15.1082 95.6341H114.892V47.5762H15.1082V95.6341Z" fill="#33871E"/>
<path d="M125.043 105.173H4.95706C2.32737 105.173 0.1875 103.034 0.1875 100.403C0.1875 97.7731 2.32684 95.6338 4.95706 95.6338H125.043C127.673 95.6338 129.813 97.7731 129.813 100.403C129.813 103.034 127.673 105.173 125.043 105.173ZM4.95706 97.7593C3.49931 97.7593 2.3125 98.9456 2.3125 100.404C2.3125 101.862 3.49878 103.048 4.95706 103.048H125.043C126.501 103.048 127.688 101.862 127.688 100.404C127.688 98.9456 126.502 97.7593 125.043 97.7593H4.95706Z" fill="#33871E"/>
<path d="M21.6463 70.6302C21.3063 70.6302 20.9668 70.5006 20.707 70.2413C20.188 69.7223 20.188 68.8819 20.707 68.3634L34.1025 54.9679C34.6215 54.4489 35.462 54.4489 35.9805 54.9679C36.499 55.4869 36.4995 56.3274 35.9805 56.8459L22.585 70.2408C22.3257 70.5006 21.9857 70.6302 21.6463 70.6302Z" fill="#87D7BC"/>
<path d="M30.1463 70.6302C29.8063 70.6302 29.4668 70.5006 29.207 70.2413C28.688 69.7223 28.688 68.8819 29.207 68.3634L42.6025 54.9679C43.1215 54.4489 43.962 54.4489 44.4805 54.9679C44.999 55.4869 44.9995 56.3274 44.4805 56.8459L31.085 70.2408C30.8257 70.5006 30.4857 70.6302 30.1463 70.6302Z" fill="#87D7BC"/>
<path d="M88.5838 70.6302C88.2438 70.6302 87.9043 70.5006 87.6445 70.2413C87.1255 69.7223 87.1255 68.8819 87.6445 68.3634L101.04 54.9679C101.559 54.4489 102.399 54.4489 102.918 54.9679C103.436 55.4869 103.437 56.3274 102.918 56.8459L89.5225 70.2413C89.2632 70.5006 88.9232 70.6302 88.5838 70.6302Z" fill="#87D7BC"/>
<path d="M97.0838 70.6302C96.7438 70.6302 96.4043 70.5006 96.1445 70.2413C95.6255 69.7223 95.6255 68.8819 96.1445 68.3634L109.54 54.9679C110.059 54.4489 110.899 54.4489 111.418 54.9679C111.936 55.4869 111.937 56.3274 111.418 56.8459L98.0225 70.2413C97.7632 70.5006 97.4232 70.6302 97.0838 70.6302Z" fill="#87D7BC"/>
</svg>
