<svg width="128" height="103" viewBox="0 0 128 103" fill="none" xmlns="http://www.w3.org/2000/svg">
<path d="M123.218 91.7627H3.95728C2.44481 91.7627 1.21875 92.9887 1.21875 94.5012V101.688H125.956V94.5012C125.957 92.9887 124.731 91.7627 123.218 91.7627Z" fill="#F4EFED"/>
<path d="M120.479 35.5991H6.6958V91.7634H120.479V35.5991Z" fill="#F4EFED"/>
<path d="M123.218 91.7627H117.741C119.253 91.7627 120.48 92.9887 120.48 94.5012V101.688H125.957V94.5012C125.957 92.9887 124.731 91.7627 123.218 91.7627Z" fill="#D6D1CF"/>
<path d="M3.95728 91.7627H9.43434C7.92188 91.7627 6.69581 92.9887 6.69581 94.5012V101.688H1.21875V94.5012C1.21875 92.9887 2.44481 91.7627 3.95728 91.7627Z" fill="white"/>
<path d="M120.479 35.5991H115.002V91.7634H120.479V35.5991Z" fill="#D6D1CF"/>
<path d="M12.1729 35.5991H6.6958V91.7634H12.1729V35.5991Z" fill="white"/>
<path d="M43.6356 55.9893H19.603V91.7626H43.6356V55.9893Z" fill="#FCC24C"/>
<path d="M125.957 102.907H1.21875C0.546 102.907 0 102.361 0 101.688V94.5012C0 92.319 1.77511 90.5439 3.95728 90.5439H123.217C125.4 90.5439 127.175 92.319 127.175 94.5012V101.688C127.175 102.361 126.629 102.907 125.957 102.907ZM2.4375 100.469H124.737V94.5012C124.737 93.6633 124.055 92.9814 123.217 92.9814H3.95789C3.12 92.9814 2.43811 93.6633 2.43811 94.5012V100.469H2.4375Z" fill="#4E6914"/>
<path d="M120.479 92.9815H6.69641C6.02366 92.9815 5.47766 92.4355 5.47766 91.7628V35.5991C5.47766 34.9264 6.02366 34.3804 6.69641 34.3804H120.479C121.152 34.3804 121.698 34.9264 121.698 35.5991V91.7628C121.698 92.4355 121.152 92.9815 120.479 92.9815ZM7.91516 90.544H119.26V36.8179H7.91516V90.544Z" fill="#4E6914"/>
<path d="M43.6356 92.9814H19.603C18.9303 92.9814 18.3843 92.4354 18.3843 91.7626V55.9893C18.3843 55.3165 18.9303 54.7705 19.603 54.7705H43.6356C44.3083 54.7705 44.8543 55.3165 44.8543 55.9893V91.7626C44.8543 92.4354 44.3083 92.9814 43.6356 92.9814ZM20.8218 90.5439H42.4168V57.208H20.8218V90.5439Z" fill="#4E6914"/>
<path d="M19.0387 1.21875H1.21875V40.4497C1.21875 45.3704 5.20772 49.3594 10.1284 49.3594C15.0491 49.3594 19.0381 45.3704 19.0381 40.4497V1.21875H19.0387Z" fill="#61FFCA"/>
<path d="M54.678 1.21875H36.858V40.4497C36.858 45.3704 40.847 49.3594 45.7677 49.3594C50.6884 49.3594 54.6774 45.3704 54.6774 40.4497V1.21875H54.678Z" fill="#32E0A6"/>
<path d="M90.3173 1.21875H72.4979V40.4497C72.4979 45.3704 76.4869 49.3594 81.4076 49.3594C86.3283 49.3594 90.3173 45.3704 90.3173 40.4497V1.21875Z" fill="#32E0A6"/>
<path d="M125.957 1.21875H108.137V40.4497C108.137 45.3704 112.126 49.3594 117.047 49.3594C121.968 49.3594 125.957 45.3704 125.957 40.4497V1.21875Z" fill="#11F0A6"/>
<path d="M36.858 1.21875H19.0387V40.4497C19.0387 45.3704 23.0277 49.3594 27.9484 49.3594C32.8691 49.3594 36.858 45.3704 36.858 40.4497V1.21875Z" fill="#F4EFED"/>
<path d="M72.4973 1.21875H54.678V40.4497C54.678 45.3704 58.6669 49.3594 63.5877 49.3594C68.5084 49.3594 72.4973 45.3704 72.4973 40.4497V1.21875Z" fill="#F4EFED"/>
<path d="M108.137 1.21875H90.3167V40.4497C90.3167 45.3704 94.3057 49.3594 99.2264 49.3594C104.147 49.3594 108.136 45.3704 108.136 40.4497V1.21875H108.137Z" fill="#F4EFED"/>
<path d="M10.1284 50.5781C4.5435 50.5781 0 46.0346 0 40.4497V1.21875C0 0.546 0.546 0 1.21875 0H19.0381C19.7108 0 20.2568 0.546 20.2568 1.21875V40.4497C20.2575 46.0346 15.714 50.5781 10.1284 50.5781ZM2.4375 2.4375V40.4497C2.4375 44.6903 5.88778 48.1406 10.1284 48.1406C14.3691 48.1406 17.8193 44.6903 17.8193 40.4497V2.4375H2.4375Z" fill="#4E6914"/>
<path d="M5.60071 20.6465C4.92796 20.6465 4.38196 20.1005 4.38196 19.4277V12.1152C4.38196 11.4425 4.92796 10.8965 5.60071 10.8965C6.27346 10.8965 6.81946 11.4425 6.81946 12.1152V19.4277C6.81946 20.1005 6.27346 20.6465 5.60071 20.6465Z" fill="#4E6914"/>
<path d="M27.9484 50.5781C22.3634 50.5781 17.8199 46.0346 17.8199 40.4497V1.21875C17.8199 0.546 18.3659 0 19.0387 0H36.8587C37.5314 0 38.0774 0.546 38.0774 1.21875V40.4497C38.0774 46.0346 33.5333 50.5781 27.9484 50.5781ZM20.2574 2.4375V40.4497C20.2574 44.6903 23.7077 48.1406 27.9484 48.1406C32.1896 48.1406 35.6399 44.6903 35.6399 40.4497V2.4375H20.2574Z" fill="#4E6914"/>
<path d="M45.7683 50.5781C40.1834 50.5781 35.6399 46.0346 35.6399 40.4497V1.21875C35.6399 0.546 36.1859 0 36.8586 0H54.678C55.3507 0 55.8967 0.546 55.8967 1.21875V40.4497C55.8967 46.0346 51.3532 50.5781 45.7683 50.5781ZM38.0774 2.4375V40.4497C38.0774 44.6903 41.5277 48.1406 45.7683 48.1406C50.009 48.1406 53.4592 44.6903 53.4592 40.4497V2.4375H38.0774Z" fill="#4E6914"/>
<path d="M63.5877 50.5781C58.0027 50.5781 53.4592 46.0346 53.4592 40.4497V1.21875C53.4592 0.546 54.0052 0 54.678 0H72.4973C73.1701 0 73.7161 0.546 73.7161 1.21875V40.4497C73.7161 46.0346 69.1726 50.5781 63.5877 50.5781ZM55.8967 2.4375V40.4497C55.8967 44.6903 59.347 48.1406 63.5877 48.1406C67.8283 48.1406 71.2786 44.6903 71.2786 40.4497V2.4375H55.8967Z" fill="#4E6914"/>
<path d="M81.407 50.5781C75.8221 50.5781 71.2786 46.0346 71.2786 40.4497V1.21875C71.2786 0.546 71.8246 0 72.4973 0H90.3167C90.9894 0 91.5354 0.546 91.5354 1.21875V40.4497C91.5354 46.0346 86.9919 50.5781 81.407 50.5781ZM73.7161 2.4375V40.4497C73.7161 44.6903 77.1663 48.1406 81.407 48.1406C85.6476 48.1406 89.0979 44.6903 89.0979 40.4497V2.4375H73.7161Z" fill="#4E6914"/>
<path d="M99.227 50.5781C93.6421 50.5781 89.098 46.0346 89.098 40.4497V1.21875C89.098 0.546 89.644 0 90.3167 0H108.137C108.809 0 109.355 0.546 109.355 1.21875V40.4497C109.355 46.0346 104.812 50.5781 99.227 50.5781ZM91.5355 2.4375V40.4497C91.5355 44.6903 94.9857 48.1406 99.227 48.1406C103.468 48.1406 106.918 44.6903 106.918 40.4497V2.4375H91.5355Z" fill="#4E6914"/>
<path d="M117.047 50.5781C111.462 50.5781 106.918 46.0346 106.918 40.4497V1.21875C106.918 0.546 107.464 0 108.137 0H125.957C126.629 0 127.175 0.546 127.175 1.21875V40.4497C127.175 46.0346 122.632 50.5781 117.047 50.5781ZM109.355 2.4375V40.4497C109.355 44.6903 112.806 48.1406 117.046 48.1406C121.287 48.1406 124.737 44.6903 124.737 40.4497V2.4375H109.355Z" fill="#4E6914"/>
<path d="M25.5535 78.8713C23.5499 78.8713 21.9192 77.2406 21.9192 75.237C21.9192 73.2327 23.5499 71.6021 25.5535 71.6021C27.5571 71.6021 29.1878 73.2327 29.1878 75.237C29.1878 77.2406 27.5571 78.8713 25.5535 78.8713ZM25.5535 74.0396C24.8936 74.0396 24.3567 74.577 24.3567 75.237C24.3567 75.8969 24.8936 76.4338 25.5535 76.4338C26.2135 76.4338 26.7503 75.8969 26.7503 75.237C26.7503 74.577 26.2135 74.0396 25.5535 74.0396Z" fill="#4E6914"/>
<path d="M63.5876 30.7602C62.9149 30.7602 62.3689 30.2142 62.3689 29.5414V15.0937C62.3689 14.421 62.9149 13.875 63.5876 13.875C64.2604 13.875 64.8064 14.421 64.8064 15.0937V29.5414C64.8064 30.2148 64.2604 30.7602 63.5876 30.7602Z" fill="#4E6914"/>
<path d="M104.834 80.9432H56.5433C55.0309 80.9432 53.8048 79.7171 53.8048 78.2046V58.7278C53.8048 57.2153 55.0309 55.9893 56.5433 55.9893H104.834C106.346 55.9893 107.572 57.2153 107.572 58.7278V78.2046C107.572 79.7171 106.346 80.9432 104.834 80.9432Z" fill="#FCC24C"/>
<path d="M104.834 55.9893H99.3567C100.869 55.9893 102.095 57.2153 102.095 58.7278V78.2046C102.095 79.7171 100.869 80.9432 99.3567 80.9432H104.834C106.346 80.9432 107.572 79.7171 107.572 78.2046V58.7278C107.572 57.2153 106.346 55.9893 104.834 55.9893Z" fill="#DEA42E"/>
<path d="M56.5433 80.9432H62.0204C60.5079 80.9432 59.2819 79.7171 59.2819 78.2046V58.7278C59.2819 57.2153 60.5079 55.9893 62.0204 55.9893H56.5433C55.0309 55.9893 53.8048 57.2153 53.8048 58.7278V78.2046C53.8048 79.7171 55.0309 80.9432 56.5433 80.9432Z" fill="#FCE06A"/>
<path d="M104.834 82.1619H56.5433C54.3612 82.1619 52.5861 80.3868 52.5861 78.2046V58.7278C52.5861 56.5456 54.3612 54.7705 56.5433 54.7705H104.834C107.015 54.7705 108.791 56.5456 108.791 58.7278V78.2046C108.791 80.3868 107.016 82.1619 104.834 82.1619ZM56.5433 57.208C55.7055 57.208 55.0236 57.8899 55.0236 58.7278V78.2046C55.0236 79.0425 55.7055 79.7244 56.5433 79.7244H104.834C105.672 79.7244 106.353 79.0425 106.353 78.2046V58.7278C106.353 57.8899 105.672 57.208 104.834 57.208H56.5433Z" fill="#4E6914"/>
<path d="M80.6886 82.1619C80.0158 82.1619 79.4698 81.6159 79.4698 80.9432V55.9893C79.4698 55.3165 80.0158 54.7705 80.6886 54.7705C81.3613 54.7705 81.9073 55.3165 81.9073 55.9893V80.9432C81.9073 81.6165 81.362 82.1619 80.6886 82.1619Z" fill="#4E6914"/>
<path d="M94.3593 74.3405C94.0473 74.3405 93.7359 74.2217 93.4977 73.9834L89.6726 70.1584C89.1967 69.6825 89.1967 68.911 89.6726 68.4351C90.1485 67.9591 90.92 67.9591 91.3959 68.4351L95.221 72.2601C95.6969 72.736 95.6969 73.5075 95.221 73.9834C94.9833 74.2217 94.6713 74.3405 94.3593 74.3405Z" fill="#4E6914"/>
<path d="M95.1131 69.7612C94.8011 69.7612 94.4897 69.6424 94.2514 69.4041L88.9553 64.1081C88.4794 63.6322 88.4794 62.8607 88.9553 62.3848C89.4313 61.9089 90.2027 61.9089 90.6787 62.3848L95.9747 67.6808C96.4507 68.1568 96.4507 68.9282 95.9747 69.4041C95.7371 69.6424 95.4251 69.7612 95.1131 69.7612Z" fill="#4E6914"/>
<path d="M99.4463 74.0945C99.1343 74.0945 98.8229 73.9757 98.5847 73.7374L96.9412 72.0939C96.4652 71.618 96.4652 70.8465 96.9412 70.3706C97.4171 69.8947 98.1886 69.8947 98.6645 70.3706L100.308 72.0141C100.784 72.49 100.784 73.2615 100.308 73.7374C100.07 73.9751 99.7577 74.0945 99.4463 74.0945Z" fill="#4E6914"/>
<path d="M68.1299 74.3405C67.8179 74.3405 67.5065 74.2217 67.2683 73.9834L63.4432 70.1584C62.9673 69.6825 62.9673 68.911 63.4432 68.4351C63.9192 67.9591 64.6906 67.9591 65.1666 68.4351L68.9916 72.2601C69.4675 72.736 69.4675 73.5075 68.9916 73.9834C68.7539 74.2217 68.4419 74.3405 68.1299 74.3405Z" fill="#4E6914"/>
<path d="M68.8837 69.7612C68.5718 69.7612 68.2604 69.6424 68.0221 69.4041L62.726 64.1081C62.2501 63.6322 62.2501 62.8607 62.726 62.3848C63.2019 61.9089 63.9734 61.9089 64.4493 62.3848L69.7454 67.6808C70.2213 68.1568 70.2213 68.9282 69.7454 69.4041C69.5078 69.6424 69.1957 69.7612 68.8837 69.7612Z" fill="#4E6914"/>
<path d="M73.217 74.0945C72.905 74.0945 72.5936 73.9757 72.3554 73.7374L70.7119 72.0939C70.2359 71.618 70.2359 70.8465 70.7119 70.3706C71.1878 69.8947 71.9593 69.8947 72.4352 70.3706L74.0787 72.0141C74.5546 72.49 74.5546 73.2615 74.0787 73.7374C73.8404 73.9751 73.5284 74.0945 73.217 74.0945Z" fill="#4E6914"/>
</svg>
