<svg width="109" height="110" viewBox="0 0 109 110" fill="none" xmlns="http://www.w3.org/2000/svg">
<path d="M98.4227 85.0782H10.5773C6.61664 85.0782 3.40625 81.8383 3.40625 77.8414V10.9004C3.40625 6.90342 6.61664 3.66357 10.5773 3.66357H98.4227C102.383 3.66357 105.594 6.90342 105.594 10.9004V77.841C105.594 81.8383 102.383 85.0782 98.4227 85.0782Z" fill="#39A07E"/>
<path d="M8.82346 60.6548V11.8062C8.82346 10.3074 10.0276 9.09229 11.5127 9.09229H97.5652C99.0503 9.09229 100.254 10.3074 100.254 11.8062V60.6548C100.254 62.1535 99.0503 63.3687 97.5652 63.3687H11.5127C10.0276 63.3687 8.82346 62.1535 8.82346 60.6548Z" fill="#87D7BC"/>
<path d="M85.5986 106.337H23.4014C22.0121 106.337 20.8859 105.2 20.8859 103.798V102.543C20.8859 101.141 22.0121 100.004 23.4014 100.004H85.5991C86.9884 100.004 88.1146 101.141 88.1146 102.543V103.798C88.1142 105.2 86.988 106.337 85.5986 106.337Z" fill="#F0FFFA"/>
<path d="M33.4647 85.0791L29.8494 100.004H79.1506L75.5353 85.0791H33.4647Z" fill="#6BDDDD"/>
<path d="M3.40625 68.7954V77.8416C3.40625 81.8386 6.61664 85.0784 10.5773 85.0784H98.4227C102.383 85.0784 105.594 81.8386 105.594 77.8416V68.7954H3.40625Z" fill="#F0FFFA"/>
<path d="M54.7299 81.4598H54.2701C51.9317 81.4598 50.0182 79.5288 50.0182 77.169V76.7049C50.0182 74.3451 51.9317 72.4141 54.2701 72.4141H54.7299C57.0683 72.4141 58.9818 74.3451 58.9818 76.7049V77.169C58.9818 79.5288 57.0687 81.4598 54.7299 81.4598Z" fill="#F9CFCF"/>
<path d="M98.4227 85.9376H10.5773C6.15339 85.9376 2.55469 82.3058 2.55469 77.8414V10.9004C2.55469 6.43592 6.15339 2.8042 10.5773 2.8042H98.4227C102.847 2.8042 106.445 6.43592 106.445 10.9004V77.8414C106.445 82.3058 102.847 85.9376 98.4227 85.9376ZM10.5773 4.52295C7.09266 4.52295 4.25781 7.38424 4.25781 10.9004V77.8414C4.25781 81.3579 7.09266 84.2188 10.5773 84.2188H98.4227C101.907 84.2188 104.742 81.3579 104.742 77.8414V10.9004C104.742 7.38381 101.907 4.52295 98.4227 4.52295H10.5773Z" fill="#28AE82"/>
<path d="M85.5986 107.196H23.4014C21.545 107.196 20.0343 105.672 20.0343 103.798V102.543C20.0343 100.67 21.545 99.1455 23.4014 99.1455H85.5986C87.455 99.1455 88.9657 100.67 88.9657 102.543V103.798C88.9657 105.672 87.455 107.196 85.5986 107.196ZM23.4014 100.864C22.4838 100.864 21.7374 101.617 21.7374 102.543V103.798C21.7374 104.724 22.4838 105.477 23.4014 105.477H85.5986C86.5162 105.477 87.2626 104.724 87.2626 103.798V102.543C87.2626 101.617 86.5162 100.864 85.5986 100.864H23.4014Z" fill="#28AE82"/>
<path d="M79.1506 100.863H29.8494C29.588 100.863 29.341 100.742 29.1797 100.535C29.0183 100.327 28.96 100.056 29.0225 99.7998L32.6374 84.875C32.7307 84.49 33.0721 84.2197 33.4643 84.2197H75.5353C75.9279 84.2197 76.2694 84.4904 76.3622 84.875L79.9771 99.7998C80.0392 100.056 79.9813 100.327 79.8199 100.535C79.659 100.742 79.4121 100.863 79.1506 100.863ZM30.9343 99.1445H78.0653L74.8664 85.9385H34.1332L30.9343 99.1445Z" fill="#28AE82"/>
<path d="M98.4227 85.9378H10.5773C6.15339 85.9378 2.55469 82.3061 2.55469 77.8416V68.7954C2.55469 68.321 2.93619 67.936 3.40625 67.936H105.594C106.064 67.936 106.445 68.321 106.445 68.7954V77.8416C106.445 82.3061 102.847 85.9378 98.4227 85.9378ZM4.25781 69.6548V77.8416C4.25781 81.3582 7.09266 84.219 10.5773 84.219H98.4227C101.907 84.219 104.742 81.3582 104.742 77.8416V69.6548H4.25781Z" fill="#28AE82"/>
<path d="M97.5656 64.2281H11.5127C9.56006 64.2281 7.97189 62.6254 7.97189 60.6553V11.8063C7.97189 9.83613 9.56006 8.2334 11.5127 8.2334H97.5652C99.5174 8.2334 101.106 9.83613 101.106 11.8063V60.6549C101.106 62.625 99.5174 64.2281 97.5656 64.2281ZM11.5127 9.95172C10.4993 9.95172 9.67502 10.7836 9.67502 11.8058V60.6549C9.67502 61.6775 10.4998 62.509 11.5127 62.509H97.5652C98.5785 62.509 99.4024 61.6771 99.4024 60.6549V11.8063C99.4024 10.7836 98.5781 9.95215 97.5652 9.95215H11.5127V9.95172Z" fill="#28AE82"/>
<path d="M65.0236 61.9825C67.4123 61.9825 69.3487 60.0283 69.3487 57.6177C69.3487 55.2071 67.4123 53.2529 65.0236 53.2529C62.6349 53.2529 60.6985 55.2071 60.6985 57.6177C60.6985 60.0283 62.6349 61.9825 65.0236 61.9825Z" fill="#39A07E"/>
<path d="M65.0236 60.0776C63.6794 60.0776 62.5856 58.9742 62.5856 57.6177C62.5856 56.2611 63.6794 55.1577 65.0236 55.1577C66.3678 55.1577 67.4612 56.2611 67.4612 57.6177C67.4612 58.9742 66.3678 60.0776 65.0236 60.0776Z" fill="#F9CFCF"/>
<path d="M46.7951 61.9825C49.1837 61.9825 51.1201 60.0283 51.1201 57.6177C51.1201 55.2071 49.1837 53.2529 46.7951 53.2529C44.4064 53.2529 42.47 55.2071 42.47 57.6177C42.47 60.0283 44.4064 61.9825 46.7951 61.9825Z" fill="#39A07E"/>
<path d="M46.7951 60.0776C45.4509 60.0776 44.3571 58.9742 44.3571 57.6177C44.3571 56.2611 45.4509 55.1577 46.7951 55.1577C48.1393 55.1577 49.2327 56.2611 49.2327 57.6177C49.2327 58.9742 48.1393 60.0776 46.7951 60.0776Z" fill="#F9CFCF"/>
<path d="M48.0669 53.2529V56.5224C48.0669 57.1132 47.5926 57.5919 47.0071 57.5919H46.7027C46.2505 57.5919 45.8481 57.3027 45.7008 56.8713L44.4635 53.2529H48.0669Z" fill="#F0FFFA"/>
<path d="M66.2954 53.2529V56.5224C66.2954 57.1132 65.8211 57.5919 65.2356 57.5919H64.9312C64.479 57.5919 64.0767 57.3027 63.9293 56.8713L62.692 53.2529H66.2954Z" fill="#F0FFFA"/>
<path d="M84.5265 23.4488H76.3341C75.8078 23.4488 75.3812 23.0183 75.3812 22.4872V20.1897C75.3812 19.6586 75.8078 19.228 76.3341 19.228H84.5265C85.0528 19.228 85.4794 19.6586 85.4794 20.1897V22.4872C85.4794 23.0187 85.0528 23.4488 84.5265 23.4488Z" fill="#F9A7A7"/>
<path d="M72.4003 23.4098C72.4739 22.8976 72.9018 22.5113 73.3958 22.5113H75.3816V20.1665H73.3958C71.6892 20.1665 70.2216 21.4229 69.9818 23.0888L69.697 25.0675H70.7235C71.0757 25.0675 71.4108 25.2136 71.6424 25.468C71.8744 25.7228 71.9805 26.061 71.9332 26.3961L72.4003 23.4098Z" fill="#F0FFFA"/>
<path d="M71.6419 25.4679C71.4103 25.2135 71.0752 25.0674 70.7231 25.0674H38.6264C38.0172 25.0674 37.4377 25.32 37.0366 25.76C36.6355 26.2005 36.452 26.7857 36.5333 27.3658L39.0109 45.0362C39.2106 46.4611 40.4901 47.5353 41.9871 47.5353H45.5152H46.4191H46.9173H61.542H62.0402H63.8591H66.344C67.841 47.5353 69.12 46.4611 69.3197 45.0362L71.9332 26.396C71.98 26.0608 71.874 25.7222 71.6419 25.4679ZM39.0037 27.4118H43.7231L44.426 35.1285H40.0856L39.0037 27.4118ZM41.9871 45.1905C41.7074 45.1905 41.4681 44.9898 41.4306 44.7234L40.4139 37.4738H44.6393L45.3423 45.1905H41.9871ZM53.0085 45.1905H47.7939L47.091 37.4738H53.0085V45.1905ZM53.0085 35.1289H46.8772L46.1743 27.4122H53.0085V35.1289ZM60.6645 45.1905H55.4503V37.4733H61.3678L60.6645 45.1905ZM61.5812 35.1289H55.4503V27.4118H62.2841L61.5812 35.1289ZM66.8996 44.7234C66.8621 44.9894 66.6233 45.1901 66.3435 45.1901H63.1157L63.8186 37.4733H67.9159L66.8996 44.7234ZM68.2446 35.1289H64.032L64.7349 27.4122H69.3265L68.2446 35.1289Z" fill="#F0FFFA"/>
<path d="M67.8644 47.5354C68.7675 47.5354 69.5024 48.2921 69.5024 49.2219C69.5024 50.1518 68.7679 50.9084 67.8644 50.9084H40.4288C39.7543 50.9084 39.2081 51.4335 39.2081 52.0806C39.2081 52.7277 39.7548 53.2528 40.4288 53.2528H67.8644C70.1138 53.2528 71.9438 51.4447 71.9438 49.2215C71.9438 47.4731 70.8096 45.9855 69.2316 45.4282C68.8731 46.6528 67.6992 47.535 66.3435 47.535L67.8644 47.5354Z" fill="#F0FFFA"/>
</svg>
