<svg width="17" height="25" viewBox="0 0 17 25" fill="none" xmlns="http://www.w3.org/2000/svg">
<path d="M8.50002 11.8957C7.69885 11.8957 6.93048 11.5774 6.36397 11.0109C5.79745 10.4444 5.47919 9.67601 5.47919 8.87484C5.47919 8.07366 5.79745 7.3053 6.36397 6.73879C6.93048 6.17227 7.69885 5.854 8.50002 5.854C9.3012 5.854 10.0696 6.17227 10.6361 6.73879C11.2026 7.3053 11.5209 8.07366 11.5209 8.87484C11.5209 9.27154 11.4427 9.66436 11.2909 10.0309C11.1391 10.3974 10.9166 10.7304 10.6361 11.0109C10.3556 11.2914 10.0225 11.5139 9.65604 11.6657C9.28954 11.8175 8.89672 11.8957 8.50002 11.8957ZM8.50002 0.416504C6.25673 0.416504 4.10532 1.30765 2.51908 2.89389C0.93283 4.48014 0.041687 6.63155 0.041687 8.87484C0.041687 15.2186 8.50002 24.5832 8.50002 24.5832C8.50002 24.5832 16.9584 15.2186 16.9584 8.87484C16.9584 6.63155 16.0672 4.48014 14.481 2.89389C12.8947 1.30765 10.7433 0.416504 8.50002 0.416504Z" fill="black"/>
</svg>
