<svg width="36" height="36" viewBox="0 0 36 36" fill="none" xmlns="http://www.w3.org/2000/svg">
<path d="M33.6901 9C32.5351 9.525 31.2901 9.87 30.0001 10.035C31.3201 9.24 32.3401 7.98 32.8201 6.465C31.5751 7.215 30.1951 7.74 28.7401 8.04C27.5551 6.75 25.8901 6 24.0001 6C20.4751 6 17.5951 8.88 17.5951 12.435C17.5951 12.945 17.6551 13.44 17.7601 13.905C12.4201 13.635 7.66506 11.07 4.50006 7.185C3.94506 8.13 3.63006 9.24 3.63006 10.41C3.63006 12.645 4.75506 14.625 6.49506 15.75C5.43006 15.75 4.44006 15.45 3.57006 15V15.045C3.57006 18.165 5.79006 20.775 8.73006 21.36C7.78615 21.6183 6.7952 21.6543 5.83506 21.465C6.24247 22.7437 7.04036 23.8626 8.11658 24.6644C9.1928 25.4662 10.4932 25.9105 11.8351 25.935C9.5605 27.7357 6.74105 28.709 3.84006 28.695C3.33006 28.695 2.82006 28.665 2.31006 28.605C5.16006 30.435 8.55006 31.5 12.1801 31.5C24.0001 31.5 30.4951 21.69 30.4951 13.185C30.4951 12.9 30.4951 12.63 30.4801 12.345C31.7401 11.445 32.8201 10.305 33.6901 9Z" fill="white"/>
</svg>
